# xmcd CD database file
#
# Track frame offsets:
#	150
#	34886
#	64858
#	94070
#	121581
#	160841
#	192621
#	227131
#	253227
#
# Disc length: 3748 seconds
#
# Revision: 0
# Processed by: cddbd v1.5.2PL0 Copyright (c) Steve Scherf et al.
# Submitted via: CDex 1.70beta2
#
DISCID=790ea209
DTITLE=Kéknyúl - Nahát Babám
DYEAR=2011
DGENRE=Jazz
TTITLE0=Ronnie's Bonnie
TTITLE1=Könnyű Blues
TTITLE2=Nahát Babám
TTITLE3=Kobo
TTITLE4=Rákok a Mákban
TTITLE5=Rajzfilm
TTITLE6=Nagyszemű Lány
TTITLE7=Vilivelevala
TTITLE8=Gospell
EXTD=YEAR: 2011
EXTT0=
EXTT1=
EXTT2=
EXTT3=
EXTT4=
EXTT5=
EXTT6=
EXTT7=
EXTT8=
PLAYORDER=
